<svg width="512" height="512" xmlns="http://www.w3.org/2000/svg" class="svg-inline--fa fa-eye-dropper fa-w-16">

 <g>
  <title>background</title>
  <rect fill="none" id="canvas_background" height="602" width="802" y="-1" x="-1"/>
 </g>
 <g>
  <title>Layer 1</title>
  <path stroke="null" id="svg_1" d="m199.09777,391.9965c-8.06253,7.92192 -12.5977,18.66931 -12.5977,29.87882l0,30.03066l-21.50008,36.96894l21.50008,21.12511l37.62514,-21.12511l30.5637,0c11.40176,0 22.33992,-4.44948 30.40245,-12.37139l85.08656,-83.58941l-86.00031,-84.50043l-85.07984,83.58281zm291.01026,-201.4345c-25.17525,-24.75599 -66.03211,-24.75599 -91.20736,0l-51.79503,50.8917l-8.80159,-8.64809c-6.34252,-6.23191 -16.56178,-6.14609 -22.80352,0l-27.52682,27.04674c-6.29549,6.1857 -6.29549,16.22012 0,22.40582l108.80383,106.90625c6.34252,6.23191 16.56178,6.14609 22.80352,0l27.52682,-27.04014c6.29549,-6.1857 6.29549,-16.22012 0,-22.40582l-8.80159,-8.64809l51.79503,-50.8917c25.20212,-24.74278 25.20212,-64.86728 0.00672,-89.61667z" fill="currentColor"/>
  <g stroke="null" id="svg_7">
   <path stroke="null" fill="#000000" d="m270.76912,457.45202c0,0 97.9502,0 97.9502,0c0,0 0,27.92694 0,27.92694c0,0 -97.9502,0 -97.9502,0c0,0 0,-27.92694 0,-27.92694m-140.48857,0c0,0 97.9502,0 97.9502,0c0,0 0,27.92694 0,27.92694c0,0 -97.9502,0 -97.9502,0c0,0 0,-27.92694 0,-27.92694m329.11267,-48.59288c0,0 27.98577,0 27.98577,0c0,0 0,6.70247 0,6.70247c0,38.53918 -31.34406,69.81736 -69.96443,69.81736c0,0 -6.71659,0 -6.71659,0c0,0 0,-27.92694 0,-27.92694c0,0 6.71659,0 6.71659,0c23.50805,0 41.97866,-18.43178 41.97866,-41.89042c0,0 0,-6.70247 0,-6.70247m-447.77233,0c0,0 27.98577,0 27.98577,0c0,0 0,6.70247 0,6.70247c0,23.45863 18.47061,41.89042 41.97866,41.89042c0,0 7.2763,0 7.2763,0c0,0 0,27.92694 0,27.92694c0,0 -7.2763,0 -7.2763,0c-38.62036,0 -69.96443,-31.27818 -69.96443,-69.81736c0,0 0,-6.70247 0,-6.70247m447.77233,-139.63472c0,0 27.98577,0 27.98577,0c0,0 0,97.74431 0,97.74431c0,0 -27.98577,0 -27.98577,0c0,0 0,-97.74431 0,-97.74431m-447.77233,0c0,0 27.98577,0 27.98577,0c0,0 0,97.74431 0,97.74431c0,0 -27.98577,0 -27.98577,0c0,0 0,-97.74431 0,-97.74431m447.77233,-140.19326c0,0 27.98577,0 27.98577,0c0,0 0,97.74431 0,97.74431c0,0 -27.98577,0 -27.98577,0c0,0 0,-97.74431 0,-97.74431m-447.77233,0c0,0 27.98577,0 27.98577,0c0,0 0,97.74431 0,97.74431c0,0 -27.98577,0 -27.98577,0c0,0 0,-97.74431 0,-97.74431m399.07709,-118.41025c0,0 6.71659,0 6.71659,0c38.62036,0 69.96443,31.27818 69.96443,69.81736c0,0 0,7.26101 0,7.26101c0,0 -27.98577,0 -27.98577,0c0,0 0,-7.26101 0,-7.26101c0,-23.45863 -18.47061,-41.89042 -41.97866,-41.89042c0,0 -6.71659,0 -6.71659,0c0,0 0,-27.92694 0,-27.92694m-139.92885,0c0,0 97.9502,0 97.9502,0c0,0 0,27.92694 0,27.92694c0,0 -97.9502,0 -97.9502,0c0,0 0,-27.92694 0,-27.92694m-140.48857,0c0,0 97.9502,0 97.9502,0c0,0 0,27.92694 0,27.92694c0,0 -97.9502,0 -97.9502,0c0,0 0,-27.92694 0,-27.92694m-48.69524,0c0,0 7.2763,0 7.2763,0c0,0 0,27.92694 0,27.92694c0,0 -7.2763,0 -7.2763,0c-23.50805,0 -41.97866,18.43178 -41.97866,41.89042c0,0 0,7.26101 0,7.26101c0,0 -27.98577,0 -27.98577,0c0,0 0,-7.26101 0,-7.26101c0,-38.53918 31.34406,-69.81736 69.96443,-69.81736c0,0 0,0 0,0" id="svg_5"/>
  </g>
 </g>
</svg>